<?xml version="1.0" encoding="UTF-8"?><svg id="Layer_1" xmlns="http://www.w3.org/2000/svg" viewBox="0 0 50.8 55.23"><path d="M23.52,21.02c2.7-1.18,4.66-2.04,6.66-2.91,.45,.25,.98,.39,1.29,.74,3.12,3.47,6.8,5.74,11.62,6.1,3.51,.26,5.69,2.54,7.03,5.64,1.56,3.62,.47,5.42-3.42,5.5-10.15,.21-20.33,.61-29.99-4.34-.67,1.55-1.17,2.7-1.78,4.1H1.88C.18,32.99-.4,29.85,.28,26.45,1.7,19.3,3.11,12.15,4.63,4.46,9.66,3.09,15.2,1.59,21.05,0c.73,2.11,1.31,3.77,1.91,5.48-1.83,1.29-3.39,2.39-5.37,3.79,2.83,1.88,4.39-.63,6.59-.72,.33,.47,.78,1.11,1.4,1.99-1.74,1.23-3.38,2.4-5.3,3.77,2.93,2.12,4.57-1.02,6.95-.77,.37,.53,.84,1.19,1.25,1.78-1.02,2.31-4.92,1.57-4.95,5.69Z"/><path d="M4.65,39.1H47.82c-.7,1.41-1.2,2.43-1.7,3.44,.61,.98,1.34,1.9,1.81,2.94,1.67,3.73-.19,8.02-3.98,9.38-3.68,1.31-8.04-.97-9.11-4.8-.13-.48-.14-.99-.19-1.48-.53-4.71-1.76-5.93-6.45-6.19-1.83-.1-3.67-.12-5.5,.01-4.39,.32-5.62,1.6-6.08,6.04-.36,3.48-2.64,6.14-5.71,6.68-3.07,.54-6.01-.93-7.49-3.76-1.41-2.68-1.06-5.35,.92-7.4,1.51-1.57,1.58-2.96,.33-4.85Z"/></svg>