<?xml version="1.0" encoding="UTF-8"?><svg id="Layer_1" xmlns="http://www.w3.org/2000/svg" viewBox="0 0 52.22 52.17"><path d="M45.51,36.01c1.47,.97,3.16,2.08,5.22,3.44,2.68,5.61,1.83,9.41-3.24,12.53-2.71,.18-5.37,0-8.06-1.04-.53-1.17-1.1-2.43-1.74-3.83H14.42c-.51,1.06-1.03,2.17-1.69,3.54-4.34,2.35-10.01,2.44-12.65-3.16,.01-2.68-.55-5.47,1.16-8.05,1.03-.69,2.21-1.48,3.65-2.45,3.89-.35,7.72,.16,9.55,4.92h22.88c1.22-1.56,2.48-3.16,3.67-4.69-2.13-10.69-4.24-21.32-6.4-32.2-.13-.13-.49-.49-1.02-1.02h-6.77c-.83-.69-1.33-1.11-2.05-1.7,.59-.84,1.13-1.6,1.64-2.31h10.2c.74,.8,1.53,1.66,2.26,2.45,2.18,10.97,4.35,21.93,6.66,33.57ZM9.87,46.7v-3.39c-.53-.53-.88-.88-1.2-1.2h-3.26c-.44,.94-.82,1.74-1.13,2.4,.79,1.51,1.76,2.78,3.14,3.28,.87-.39,1.57-.7,2.46-1.1Zm32.35-3.39v3.39c.89,.4,1.59,.71,2.45,1.09,1.45-.59,2.56-1.81,3.11-3.34-.48-.91-.9-1.71-1.27-2.42h-3c-.53,.52-1,.99-1.29,1.28Z"/></svg>