<?xml version="1.0" encoding="UTF-8"?><svg id="Layer_1" xmlns="http://www.w3.org/2000/svg" viewBox="0 0 206.72 289.34"><path d="M201.49,113.59c-6.44,15.48-21.64,23.96-34.93,33.3-12.71,8.93-25.55,17.98-36.77,28.62-5.52,5.23-7.33,14.29-11.17,21.42-6.45,11.97-20.44,16.28-36.26,12.67-17.23-3.92-11-25.63-8.93-42.97,4.49-34.51,52.48-52.07,56.06-54.24,10.11-6.13,35.19-14.33,19.55-51.69-4.08-9.75-20.61-23.07-54.72-18.44-19.08,2.59-28.93,3.95-40.89,24.37-7.71,13.16-11.57,32.91-26.97,31.4-11.81-1.16-19.9-7.99-23.93-17.87C-2.09,68.83-.02,57.16,5.82,45.85,30.51,.11,91.19-5.7,136.86,3.98c21.73,4.37,40.75,14.72,53.55,33.81,3.7,5.52,6.33,11.77,9.3,17.76,5.12,10.35,11.89,33.78,1.79,58.05Z"/><path d="M119.61,259.04c-1.25,17.18-12.95,29.53-31.49,30.28-17.4,.71-31.45-13.16-32.27-29.42-.86-17.05,16.22-31.1,31.58-30.98,16.59,.13,32.06,14.39,32.18,30.11Z"/></svg>