<?xml version="1.0" encoding="UTF-8"?><svg id="Layer_1" xmlns="http://www.w3.org/2000/svg" viewBox="0 0 57.63 58.12"><path d="M11.71,58.12C4.69,57.72-.48,53.13,.03,47.15c.14-1.63,.94-3.72,2.16-4.66,9.15-7.04,16.61-15.8,24.78-23.83,5.01-4.92,9.56-10.31,14.23-15.57,2.88-3.24,5.59-3.92,9.58-2.09,6.23,2.86,8.58,9.53,5.48,15.63-.52,1.02-1.09,2.04-1.83,2.9-1.23,1.42-1.39,2.5-.25,4.26,1.89,2.93,.54,6.57-2.49,8.25-2.14,1.18-3.82,.35-5.3-1.09-1.06-1.03-1.82-.98-2.83,.05-4.83,4.9-9.69,9.78-14.61,14.59-1.24,1.21-.89,1.97-.08,3.3,1.72,2.8,1.17,5.36-1.14,7.44-1.96,1.76-3.33,1.8-6.56-.22-1.12-.7-1.86-.76-3.08-.19-2.03,.94-4.25,1.49-6.38,2.21ZM49.36,29.77c1.81,0,3.18-1.62,3.04-3.32-.03-.4-.72-.75-1.11-1.12-.87,1.05-1.81,2.05-2.55,3.18-.15,.22,.45,.93,.62,1.26Zm-22.62,20.58c-1.89,.56-2.91,1.48-3.01,3.13-.03,.49,.5,1.47,.75,1.46,1.75-.08,2.47-1.4,2.83-2.88,.11-.45-.33-1.03-.57-1.71ZM41.35,15.25c-.37-.44-.59-.96-.91-1.04-.36-.08-.82,.23-1.23,.38,.27,.47,.47,1,.85,1.35,.1,.09,.73-.38,1.29-.69Zm-23.85,30.15c-1.22,.92-1.35,.86-.35,2.02,.43-.32,.86-.64,1.29-.97-.29-.33-.57-.65-.93-1.06Zm20.1-26.42c-.39-.41-.63-.9-.95-.96-.37-.06-.81,.26-1.22,.41,.29,.47,.58,.93,.88,1.4,.36-.24,.73-.48,1.29-.85Zm8.81-.29c-.51-.34-1.07-.85-1.18-.77-.39,.3-.63,.81-.93,1.23,.37,.2,.78,.59,1.1,.53,.35-.07,.6-.57,1.01-1Zm-5.02,5.14c.42-.47,1-.98,.93-1.09-.27-.46-.75-.79-1.15-1.18-.22,.38-.63,.76-.62,1.13,0,.34,.46,.66,.83,1.14ZM15.88,40.83c1.02-2.05,1.56-1.92,.12-2.84-.26,.33-.69,.65-.73,1-.05,.4,.26,.85,.62,1.84Zm-4.81,1.74c.5,.43,.79,.87,1.1,.89,.31,.01,.64-.41,.96-.64-.75-1.31-.74-1.03-2.06-.24Zm10.22-1.03c-.47,.45-.97,.71-1.01,1.02-.03,.28,.41,.81,.71,.87,.26,.05,.83-.36,.89-.65,.07-.3-.31-.7-.59-1.25Z"/></svg>