<?xml version="1.0" encoding="UTF-8"?><svg id="Layer_1" xmlns="http://www.w3.org/2000/svg" viewBox="0 0 62.81 41.56"><path d="M.94,25.1c5.18-7.37,8.34-8.46,17.09-6.49l2.94-3.19-1.92-4.49c-1.49-.57-4.95,.74-6.22,.25,0-4.46,8.67-8.27,10.43-5.05,.29,1.87,.61,3.34,1.36,6.11,5.2,.06,9.65-1.72,14.64-2.9l-1.3-3.7c-1.27-.43-7.45,1.42-8.72,.99-.96-.33-1.14-1.83-1.26-2.73,.57-.59,7.5-4.83,10.88-3.71,1.4,.46,2.61,1.53,3.39,3.16,2.19,4.57,4.03,9.3,6.08,14.09,1.36,.11,2.65,.16,3.93,.33,5.41,.74,9.58,4.87,10.42,10.28,.77,4.93-2.21,10.3-6.92,12.45-4.86,2.22-10.87,.84-14.26-3.27-3.5-4.24-3.68-9.99-.51-14.59,.97-1.4,1.81-2.89,2.7-4.34l-2.94-1.57c-1.85,3.61-3.45,7.5-4.27,11.33-1.42,6.57-3.08,7.82-8.95,4.74-.81-.42-1.82-.46-2.92-.72-.55,.96-1.05,1.76-1.48,2.59-2.03,3.96-5.9,6.72-10.35,6.86-5.41,.16-9.24-2.36-11.55-7.1-.17-.36-.38-1.06-.59-1.75C.22,31.29,0,29.86,0,28.43c0-.11,0-.23,0-.34,0-1.06,.33-2.11,.94-2.98Zm45-.69c-2.9,3.67-2.98,6.66-.75,9.59,2.16,2.84,5.24,3.44,8.38,2.12,3.16-1.33,4.85-4.03,4.24-7.5-.6-3.46-2.67-5.64-7.41-5.91,1.51,2.8,2.62,4.86,3.73,6.91-1.3,3.37-3.18,4.06-5.86,2.01-.74-2.29-1.41-4.36-2.32-7.21Zm-31.39-.08c-.32-.46-.65-.92-.97-1.38-4.6-.45-7.46,1.35-8.35,5.27-.71,3.12,1.2,6.73,4.22,7.97,3.48,1.44,6.55,.19,8.96-4.03-2.51,.16-4.71,.29-7.62,.47-.59-1.13-1.32-2.52-2.24-4.28,2.27-1.52,4.14-2.77,6-4.02Zm16.94,.72c2.08-3.48,3.69-6.16,5.29-8.84-.25-.29-.5-.57-.75-.86-2.57,.61-5.13,1.23-8.29,1.99,1.26,2.6,2.23,4.59,3.74,7.71Zm-6.72,2.43c.62-.36,1.25-.73,1.87-1.09-1.03-1.9-2.05-3.79-3.08-5.69-.55,.28-1.1,.55-1.64,.83,.95,1.98,1.9,3.97,2.86,5.95Zm6.08,1.95c.04,.29,.08,.58,.12,.88,.43-.1,.86-.21,1.28-.31-.03-.19-.06-.38-.09-.56h-1.32Z"/></svg>