<?xml version="1.0" encoding="UTF-8"?><svg id="Layer_1" xmlns="http://www.w3.org/2000/svg" viewBox="0 0 48.15 53.97"><g><path d="M5.27,44.75c6.16,.07,5,9.7-.66,9.15-5.88-.96-5.78-9.2,.66-9.15Z"/><path d="M17.93,44.77c6.1,.4,5.62,9.26-.38,9.2-6.04-.55-5.76-9.2,.38-9.2Z"/><path d="M35.27,49.39c-.34,6.06-9.01,6.04-9.23-.07,.19-6.07,9.08-5.94,9.23,.07Z"/><path d="M43.44,53.93c-5.66,.05-6.2-9.53,0-9.18,6.43,.35,5.88,8.7,0,9.18Z"/></g><path d="M41.67,25.54c-13.53-3.26-16.38-9.88-18.49-22.74-.78-2.91-2.03-3.44-4.76-2.12-.88,.43-1.88,.94-2.42,1.7-2.2,3.09-5.22,3.56-8.74,3.53C2.12,5.88,.19,7.79,.1,12.72c-.12,6.81-.14,13.63,0,20.44,.12,5.49,2.53,7.84,8.02,7.98,5.15,.12,10.3,.03,15.45,.02,5.32,0,10.64,.09,15.95-.03,10.23-.07,11.87-12.47,2.14-15.58ZM21.49,14.38c-.72,.72-1.93,.68-2.7-.09-.77-.77-.81-1.98-.09-2.7,.72-.72,1.93-.68,2.7,.09,.77,.77,.81,1.98,.09,2.7Zm5.35,9.34c-.6,.82-1.81,.96-2.68,.32s-1.1-1.84-.49-2.66c.6-.82,1.81-.96,2.68-.32,.88,.65,1.1,1.84,.49,2.66Zm6.61,6.9c-1.09,0-1.97-.83-1.97-1.85s.88-1.85,1.97-1.85,1.97,.83,1.97,1.85-.88,1.85-1.97,1.85Z"/></svg>